<?xml version="1.0" encoding="UTF-8" standalone="no"?>
<!-- Created with Inkscape (http://www.inkscape.org/) -->

<svg
   xmlns:dc="http://purl.org/dc/elements/1.1/"
   xmlns:cc="http://creativecommons.org/ns#"
   xmlns:rdf="http://www.w3.org/1999/02/22-rdf-syntax-ns#"
   xmlns:svg="http://www.w3.org/2000/svg"
   xmlns="http://www.w3.org/2000/svg"
   xmlns:sodipodi="http://sodipodi.sourceforge.net/DTD/sodipodi-0.dtd"
   xmlns:inkscape="http://www.inkscape.org/namespaces/inkscape"
   width="210mm"
   height="297mm"
   viewBox="0 0 210 297"
   version="1.1"
   id="svg8"
   inkscape:version="0.92.4 (5da689c313, 2019-01-14)"
   sodipodi:docname="room.svg">
  <defs
     id="defs2" />
  <sodipodi:namedview
     id="base"
     pagecolor="#ffffff"
     bordercolor="#666666"
     borderopacity="1.0"
     inkscape:pageopacity="0.0"
     inkscape:pageshadow="2"
     inkscape:zoom="1.4"
     inkscape:cx="116.80063"
     inkscape:cy="909.43999"
     inkscape:document-units="mm"
     inkscape:current-layer="layer1"
     showgrid="false"
     inkscape:window-width="2033"
     inkscape:window-height="882"
     inkscape:window-x="578"
     inkscape:window-y="203"
     inkscape:window-maximized="0" />
  <metadata
     id="metadata5">
    <rdf:RDF>
      <cc:Work
         rdf:about="">
        <dc:format>image/svg+xml</dc:format>
        <dc:type
           rdf:resource="http://purl.org/dc/dcmitype/StillImage" />
        <dc:title />
      </cc:Work>
    </rdf:RDF>
  </metadata>
  <g
     inkscape:label="Layer 1"
     inkscape:groupmode="layer"
     id="layer1">
    <path
       style="fill:none;stroke:#000000;stroke-width:0.26389042px;stroke-linecap:butt;stroke-linejoin:miter;stroke-opacity:1"
       d="m 40.6316,92.70459 9.506309,-9.531516"
       id="path823"
       inkscape:connector-curvature="0"
       inkscape:export-filename="C:\UnityProjects\DonPizza\PizzaPunx2D\Assets\Spritesheets\room.png"
       inkscape:export-xdpi="338.99231"
       inkscape:export-ydpi="338.99231" />
    <path
       style="fill:none;stroke:#000000;stroke-width:0.26389042px;stroke-linecap:butt;stroke-linejoin:miter;stroke-opacity:1"
       d="m 116.70505,92.704617 -9.5063,-9.531516"
       id="path823-4"
       inkscape:connector-curvature="0"
       inkscape:export-filename="C:\UnityProjects\DonPizza\PizzaPunx2D\Assets\Spritesheets\room.png"
       inkscape:export-xdpi="338.99231"
       inkscape:export-ydpi="338.99231" />
    <path
       style="fill:none;stroke:#000000;stroke-width:0.26389042px;stroke-linecap:butt;stroke-linejoin:miter;stroke-opacity:1"
       d="m 107.19875,25.960952 9.5063,-9.531514"
       id="path823-5"
       inkscape:connector-curvature="0"
       inkscape:export-filename="C:\UnityProjects\DonPizza\PizzaPunx2D\Assets\Spritesheets\room.png"
       inkscape:export-xdpi="338.99231"
       inkscape:export-ydpi="338.99231" />
    <path
       style="fill:none;stroke:#000000;stroke-width:0.26389042px;stroke-linecap:butt;stroke-linejoin:miter;stroke-opacity:1"
       d="M 50.137918,25.960953 40.631601,16.429438"
       id="path823-4-7"
       inkscape:connector-curvature="0"
       inkscape:export-filename="C:\UnityProjects\DonPizza\PizzaPunx2D\Assets\Spritesheets\room.png"
       inkscape:export-xdpi="338.99231"
       inkscape:export-ydpi="338.99231" />
    <rect
       style="fill:#5d3e3b;fill-opacity:1;stroke:none;stroke-width:0.03490833;stroke-miterlimit:4;stroke-dasharray:none"
       id="rect1612"
       width="57.060833"
       height="57.212101"
       x="50.13792"
       y="25.960957"
       inkscape:export-filename="C:\UnityProjects\DonPizza\PizzaPunx2D\Assets\Spritesheets\room.png"
       inkscape:export-xdpi="338.99231"
       inkscape:export-ydpi="338.99231" />
    <path
       style="fill:none;stroke:#000000;stroke-width:0.26389042px;stroke-linecap:butt;stroke-linejoin:miter;stroke-opacity:1"
       d="m 50.137916,25.960953 -7e-6,57.212119"
       id="path913"
       inkscape:connector-curvature="0"
       inkscape:export-filename="C:\UnityProjects\DonPizza\PizzaPunx2D\Assets\Spritesheets\room.png"
       inkscape:export-xdpi="338.99231"
       inkscape:export-ydpi="338.99231" />
    <path
       style="fill:#ffd42a;stroke:#000000;stroke-width:0.26389042px;stroke-linecap:butt;stroke-linejoin:miter;stroke-opacity:1"
       d="m 116.70505,16.429437 -9.5063,9.531515 10e-6,57.21212 9.50629,9.531518 V 16.429436"
       id="path1565-9"
       inkscape:connector-curvature="0"
       inkscape:export-filename="C:\UnityProjects\DonPizza\PizzaPunx2D\Assets\Spritesheets\room.png"
       inkscape:export-xdpi="338.99231"
       inkscape:export-ydpi="338.99231" />
    <path
       style="fill:#231927;fill-opacity:1;stroke:#000000;stroke-width:0.26389042px;stroke-linecap:butt;stroke-linejoin:miter;stroke-opacity:1"
       d="m 107.1629,49.137289 9.50631,-9.531515 -0.0469,29.6566 -9.50629,-9.531516 z"
       id="path1135"
       inkscape:connector-curvature="0"
       inkscape:export-filename="C:\UnityProjects\DonPizza\PizzaPunx2D\Assets\Spritesheets\room.png"
       inkscape:export-xdpi="338.99231"
       inkscape:export-ydpi="338.99231" />
    <path
       style="fill:#e9ce96;fill-opacity:1;stroke:#000000;stroke-width:0.26389042px;stroke-linecap:butt;stroke-linejoin:miter;stroke-opacity:1"
       d="m 113.30032,65.956977 v -23.121 l 3.29431,-3.115227 0.0469,29.656601 z"
       id="path1146"
       inkscape:connector-curvature="0"
       inkscape:export-filename="C:\UnityProjects\DonPizza\PizzaPunx2D\Assets\Spritesheets\room.png"
       inkscape:export-xdpi="338.99231"
       inkscape:export-ydpi="338.99231" />
    <g
       aria-label="Supplies"
       style="font-style:normal;font-variant:normal;font-weight:normal;font-stretch:normal;font-size:4.23333311px;line-height:1.25;font-family:Consolas;-inkscape-font-specification:Consolas;letter-spacing:0px;word-spacing:0px;fill:#000000;fill-opacity:1;stroke:none;stroke-width:0.26458332"
       id="text1150"
       transform="matrix(0,-0.88628247,-0.88393898,0,128.09488,229.31152)"
       inkscape:export-filename="C:\UnityProjects\DonPizza\PizzaPunx2D\Assets\Spritesheets\room.png"
       inkscape:export-xdpi="338.99231"
       inkscape:export-ydpi="338.99231">
      <path
         inkscape:connector-curvature="0"
         id="path1152"
         style="stroke-width:0.26458332"
         d="m 207.49804,15.491149 c -0.0783,0.104946 -0.1098,0.195546 -0.0956,0.272364 0.0139,0.0759 0.0651,0.138642 0.15302,0.188616 0.088,0.04852 0.21077,0.08468 0.36824,0.10869 0.155,0.02391 0.33772,0.03586 0.5486,0.03592 0.0953,2.7e-5 0.1925,-0.002 0.29151,-0.0061 0.0972,-0.0041 0.19269,-0.0093 0.28639,-0.01545 0.0919,-0.0062 0.18032,-0.01344 0.26523,-0.02173 0.085,-0.0083 0.16318,-0.01714 0.23465,-0.02651 0,0 0.25977,-0.275439 0.25977,-0.275439 -0.16962,0.03042 -0.34935,0.0542 -0.53942,0.07142 -0.19146,0.01717 -0.39825,0.0257 -0.62079,0.02561 -0.16084,-6.4e-5 -0.29156,-0.0071 -0.39231,-0.02117 -0.10197,-0.01517 -0.17732,-0.03688 -0.22602,-0.06519 -0.0499,-0.02954 -0.0745,-0.06526 -0.0734,-0.107276 -8.6e-4,-0.04229 0.0204,-0.09104 0.0639,-0.146386 0.0476,-0.0604 0.11737,-0.112111 0.20953,-0.154914 0.0917,-0.04425 0.19843,-0.0835 0.32015,-0.117634 0.12324,-0.0355 0.25799,-0.0676 0.40423,-0.09624 0.14587,-0.02997 0.29588,-0.06067 0.45007,-0.09211 0.15491,-0.03159 0.3107,-0.06578 0.46745,-0.102611 0.15672,-0.03827 0.30689,-0.08302 0.45067,-0.134354 0.14602,-0.05299 0.28316,-0.115367 0.41157,-0.187371 0.12764,-0.07276 0.23967,-0.160208 0.33614,-0.26288 0.0851,-0.09057 0.14039,-0.18097 0.1653,-0.271172 0.0252,-0.09135 0.007,-0.173194 -0.0539,-0.245185 -0.0607,-0.07417 -0.17127,-0.134442 -0.332,-0.180457 -0.16396,-0.04631 -0.3873,-0.06979 -0.66928,-0.07021 -0.0727,-1.07e-4 -0.15276,0.002 -0.24016,0.0064 -0.0895,0.0044 -0.18081,0.01093 -0.27382,0.01975 -0.0939,0.0073 -0.18674,0.01611 -0.27838,0.02639 -0.0937,0.01026 -0.18131,0.02125 -0.26279,0.03298 0,0 -0.26483,0.346315 -0.26483,0.346315 0.189,-0.03086 0.37262,-0.05403 0.55056,-0.06944 0.17945,-0.01688 0.34686,-0.02523 0.50194,-0.02502 0.32944,4.34e-4 0.53999,0.03704 0.63102,0.109275 0.0901,0.07151 0.0816,0.166278 -0.0236,0.283387 -0.064,0.07122 -0.14848,0.131757 -0.25347,0.181884 -0.10623,0.04977 -0.22562,0.09398 -0.35819,0.132727 -0.13181,0.03853 -0.27341,0.07365 -0.42484,0.105408 -0.1517,0.03034 -0.30581,0.06181 -0.46228,0.09439 -0.15574,0.03243 -0.31024,0.06782 -0.4634,0.106119 -0.15432,0.03809 -0.29951,0.0833 -0.43543,0.135494 -0.13395,0.0506 -0.25495,0.109766 -0.36294,0.177276 -0.10882,0.06683 -0.1965,0.145133 -0.26315,0.234482 0,0 6e-5,2.7e-5 6e-5,2.7e-5" />
      <path
         inkscape:connector-curvature="0"
         id="path1154"
         style="stroke-width:0.26458332"
         d="m 204.03221,16.067479 c 0,0 0.43177,1.26e-4 0.43177,1.26e-4 0,0 0.1552,-0.257978 0.1552,-0.257978 0.0542,0.05614 0.10919,0.102719 0.16507,0.13995 0.0543,0.03595 0.11211,0.06489 0.17354,0.0869 0.0612,0.02193 0.12713,0.03703 0.19776,0.04535 0.0681,0.0093 0.14347,0.01403 0.22622,0.01405 0.285,7.9e-5 0.53088,-0.04711 0.74007,-0.142662 0.21239,-0.09702 0.38824,-0.246541 0.5284,-0.452313 0,0 0.83356,-1.223746 0.83356,-1.223746 0,0 -0.54993,-6.33e-4 -0.54993,-6.33e-4 0,0 -0.77094,1.200182 -0.77094,1.200182 -0.16592,0.258297 -0.40942,0.383566 -0.73546,0.383439 -0.0599,-2.3e-5 -0.11516,-0.0049 -0.16574,-0.01459 -0.0519,-0.0108 -0.10165,-0.02866 -0.14935,-0.05363 -0.0492,-0.02616 -0.0974,-0.0612 -0.14475,-0.105272 -0.0496,-0.04438 -0.10167,-0.100853 -0.15649,-0.169736 0,0 0.67063,-1.242057 0.67063,-1.242057 0,0 -0.551,-6.34e-4 -0.551,-6.34e-4 0,0 -0.89856,1.793255 -0.89856,1.793255" />
      <path
         inkscape:connector-curvature="0"
         id="path1156"
         style="stroke-width:0.26458332"
         d="m 200.96964,15.19678 c -0.0375,0.157997 -0.0327,0.292925 0.0132,0.406084 0.0431,0.111193 0.11763,0.202045 0.22316,0.273382 0.10436,0.07053 0.23488,0.122923 0.39177,0.157626 0.15598,0.0345 0.33058,0.05171 0.52444,0.05176 0.0886,2.5e-5 0.17814,-0.0025 0.26869,-0.0077 0.0887,-0.0052 0.18077,-0.01399 0.27629,-0.02648 0,0 -0.2438,0.624388 -0.2438,0.624388 0,0 0.45858,0 0.45858,0 0,0 1.03165,-2.402781 1.03165,-2.402781 0,0 -0.49155,-5.65e-4 -0.49155,-5.65e-4 0,0 -0.16649,0.335602 -0.16649,0.335602 -0.10334,-0.135415 -0.23469,-0.231731 -0.39347,-0.287271 -0.15959,-0.05736 -0.34491,-0.08634 -0.55501,-0.08658 -0.18255,-2.14e-4 -0.35002,0.02426 -0.50161,0.07317 -0.15057,0.04858 -0.28338,0.116923 -0.39811,0.204464 -0.11305,0.08516 -0.20647,0.187311 -0.28033,0.305696 -0.0724,0.115129 -0.12467,0.241765 -0.15729,0.37921 0,0 -9e-5,1.4e-5 -9e-5,1.4e-5 m 0.52485,0.01468 c 0.0262,-0.09471 0.0627,-0.182823 0.1095,-0.264038 0.0453,-0.08221 0.10206,-0.153358 0.17029,-0.213097 0.0688,-0.06026 0.14867,-0.107397 0.23939,-0.141137 0.0916,-0.03521 0.1936,-0.05283 0.30576,-0.05271 0.0685,7e-5 0.13567,0.0074 0.20138,0.02185 0.066,0.01315 0.13157,0.03606 0.19654,0.06862 0.0631,0.03112 0.12703,0.07301 0.19169,0.125472 0.0626,0.0508 0.12604,0.113752 0.19006,0.188522 0,0 -0.33095,0.847626 -0.33095,0.847626 -0.099,0.02168 -0.20072,0.03896 -0.30533,0.05188 -0.104,0.01182 -0.20385,0.0177 -0.2997,0.01766 -0.26504,-1.03e-4 -0.45704,-0.05151 -0.57741,-0.155504 -0.12207,-0.106851 -0.15352,-0.270463 -0.0912,-0.495142 0,0 2e-5,-10e-6 2e-5,-10e-6" />
      <path
         inkscape:connector-curvature="0"
         id="path1158"
         style="stroke-width:0.26458332"
         d="m 197.61234,15.194406 c 0.002,0.158276 0.0416,0.293437 0.11627,0.406788 0.0715,0.11138 0.16925,0.202381 0.2932,0.273835 0.12256,0.07064 0.26676,0.12312 0.4329,0.157879 0.1652,0.03456 0.34468,0.05179 0.53912,0.05185 0.0889,2.5e-5 0.17802,-0.0026 0.26752,-0.0077 0.0876,-0.0052 0.17775,-0.01401 0.27038,-0.02652 0,0 -0.0862,0.625325 -0.0862,0.625325 0,0 0.45988,0 0.45988,0 0,0 0.42562,-2.406902 0.42562,-2.406902 0,0 -0.49323,-5.67e-4 -0.49323,-5.67e-4 0,0 -0.0819,0.336262 -0.0819,0.336262 -0.138,-0.135678 -0.29419,-0.232184 -0.46755,-0.287835 -0.17464,-0.05747 -0.36791,-0.08651 -0.57874,-0.08676 -0.18317,-2.14e-4 -0.34495,0.02431 -0.48461,0.07331 -0.13871,0.04867 -0.25459,0.117155 -0.34746,0.204867 -0.0917,0.08532 -0.15947,0.187672 -0.2036,0.306281 -0.0434,0.115343 -0.0637,0.242211 -0.0615,0.379903 0,0 -8e-5,1.4e-5 -8e-5,1.4e-5 m 0.53015,0.0147 c 0.002,-0.09488 0.0165,-0.183152 0.0428,-0.264517 0.0246,-0.08236 0.0635,-0.153644 0.11674,-0.213495 0.0537,-0.06037 0.12188,-0.107602 0.20432,-0.141407 0.0829,-0.03528 0.1808,-0.05293 0.29333,-0.05281 0.0687,7.1e-5 0.13796,0.0074 0.20754,0.0219 0.0695,0.01318 0.14113,0.03613 0.21458,0.06876 0.0712,0.03118 0.14593,0.07315 0.2241,0.125711 0.0757,0.05089 0.15527,0.113966 0.23845,0.188874 0,0 -0.11702,0.849102 -0.11702,0.849102 -0.0938,0.02171 -0.19143,0.03902 -0.29308,0.05196 -0.1013,0.01184 -0.19995,0.01773 -0.29609,0.01769 -0.26586,-1.04e-4 -0.47146,-0.0516 -0.61857,-0.15576 -0.14955,-0.10703 -0.22262,-0.270921 -0.21716,-0.495994 0,0 3e-5,-10e-6 3e-5,-10e-6" />
      <path
         inkscape:connector-curvature="0"
         id="path1160"
         style="stroke-width:0.26458332"
         d="m 195.55658,13.694984 c 0,0 0.98672,0.0014 0.98672,0.0014 0,0 -0.0281,-0.324698 -0.0281,-0.324698 0,0 -1.60648,-0.0025 -1.60648,-0.0025 0,0 0.4755,2.464344 0.4755,2.464344 0,0 -0.85051,-3.42e-4 -0.85051,-3.42e-4 0,0 0.0603,0.231572 0.0603,0.231572 0,0 2.2463,6.55e-4 2.2463,6.55e-4 0,0 -0.0183,-0.231308 -0.0183,-0.231308 0,0 -0.93745,-3.76e-4 -0.93745,-3.76e-4 0,0 -0.32795,-2.138717 -0.32795,-2.138717" />
      <path
         inkscape:connector-curvature="0"
         id="path1162"
         style="stroke-width:0.26458332"
         d="m 192.15116,14.549862 c 0,0 0.93246,9.44e-4 0.93246,9.44e-4 0,0 -0.0989,-0.290322 -0.0989,-0.290322 0,0 -1.51651,-0.0017 -1.51651,-0.0017 0,0 0.70374,1.57347 0.70374,1.57347 0,0 -0.85312,-3.43e-4 -0.85312,-3.43e-4 0,0 0.1194,0.231944 0.1194,0.231944 0,0 2.25305,6.57e-4 2.25305,6.57e-4 0,0 -0.0772,-0.231679 -0.0772,-0.231679 0,0 -0.94032,-3.78e-4 -0.94032,-3.78e-4 0,0 -0.52267,-1.282549 -0.52267,-1.282549 m -0.70303,-1.214122 c -0.0661,-1.05e-4 -0.12394,0.0084 -0.17339,0.02537 -0.0501,0.01542 -0.0891,0.03777 -0.11692,0.067 -0.03,0.02911 -0.0477,0.0627 -0.0531,0.100718 -0.008,0.03631 -0.003,0.07622 0.0171,0.119666 0.0189,0.04171 0.0488,0.08099 0.0897,0.117869 0.0386,0.03669 0.0849,0.06885 0.13893,0.09652 0.0517,0.02756 0.10833,0.04927 0.17,0.06518 0.0609,0.01443 0.12299,0.02168 0.18633,0.02177 0.0633,8.2e-5 0.11934,-0.007 0.16815,-0.0213 0.0483,-0.01576 0.0878,-0.03734 0.11853,-0.06478 0.0286,-0.02755 0.0478,-0.05961 0.0577,-0.09622 0.008,-0.0368 0.004,-0.07602 -0.0127,-0.11771 -0.017,-0.04342 -0.0438,-0.08335 -0.0805,-0.11971 -0.0397,-0.03807 -0.0857,-0.07175 -0.13795,-0.100971 -0.0548,-0.02934 -0.11379,-0.05185 -0.17694,-0.06744 -0.0639,-0.01718 -0.12894,-0.02584 -0.19496,-0.02595 0,0 0,0 0,0" />
      <path
         inkscape:connector-curvature="0"
         id="path1164"
         style="stroke-width:0.26458332"
         d="m 187.45629,15.123862 c 0.0348,0.04474 0.0647,0.082 0.0899,0.111897 0.025,0.02976 0.0496,0.05762 0.0736,0.08358 0,0 2.09867,0.0014 2.09867,0.0014 0.11021,0.178753 0.10977,0.312983 0.002,0.405314 -0.10685,0.08994 -0.31378,0.134373 -0.62195,0.134254 -0.0838,-3.3e-5 -0.16863,-0.0017 -0.25464,-0.005 -0.0869,-0.0044 -0.17173,-0.0098 -0.25466,-0.01637 -0.0829,-0.0066 -0.1626,-0.01366 -0.23899,-0.02131 -0.0792,-0.0088 -0.1532,-0.01807 -0.22191,-0.02795 0,0 0.1764,0.230639 0.1764,0.230639 0.14935,0.02112 0.31286,0.03797 0.49063,0.05059 0.17626,0.01364 0.35389,0.02047 0.53318,0.02052 0.24086,6.7e-5 0.43619,-0.01815 0.58667,-0.05482 0.15134,-0.03688 0.26237,-0.0905 0.33302,-0.161306 0.0689,-0.07269 0.10035,-0.162272 0.0937,-0.269442 -0.009,-0.110128 -0.0548,-0.236752 -0.13768,-0.380793 -0.0735,-0.127749 -0.17466,-0.250572 -0.30408,-0.368132 -0.13457,-0.12092 -0.29043,-0.228379 -0.46758,-0.321695 -0.18253,-0.09594 -0.38267,-0.172892 -0.59982,-0.230223 -0.21897,-0.05781 -0.44527,-0.08703 -0.67759,-0.0873 -0.22591,-2.64e-4 -0.4099,0.02229 -0.55129,0.06745 -0.14049,0.04488 -0.23838,0.108436 -0.29383,0.190162 -0.0579,0.07947 -0.0724,0.175653 -0.0444,0.287852 0.0246,0.109135 0.0884,0.229578 0.19031,0.360682 0,0 2.9e-4,1.3e-5 2.9e-4,1.3e-5 m 0.51366,-0.04524 c -0.0665,-0.08234 -0.10904,-0.158169 -0.12714,-0.22726 -0.019,-0.07107 -0.0121,-0.132565 0.0212,-0.184203 0.0314,-0.05203 0.0894,-0.09258 0.1739,-0.121462 0.0839,-0.03032 0.19564,-0.04546 0.33479,-0.04532 0.12018,1.25e-4 0.23944,0.01484 0.35742,0.04405 0.11741,0.02908 0.22832,0.06979 0.3325,0.12194 0.10335,0.05175 0.19887,0.113309 0.28644,0.184416 0.0867,0.07037 0.16037,0.146792 0.22121,0.22906 0,0 -1.6003,-0.0012 -1.6003,-0.0012" />
      <path
         inkscape:connector-curvature="0"
         id="path1166"
         style="stroke-width:0.26458332"
         d="m 184.70374,15.614824 c 0.0607,0.05947 0.13202,0.112302 0.21388,0.158667 0.0813,0.04603 0.16943,0.08685 0.26451,0.122552 0.0935,0.03444 0.19114,0.06388 0.29301,0.0884 0.10144,0.02443 0.20405,0.04454 0.30793,0.06038 0.10169,0.0158 0.20192,0.02736 0.30078,0.03472 0.0987,0.0073 0.19209,0.01103 0.28011,0.01106 0.19099,5.3e-5 0.36276,-0.0046 0.51549,-0.01397 0.15106,-0.0094 0.29456,-0.02455 0.43067,-0.04556 0,0 -0.21838,-0.258293 -0.21838,-0.258293 -0.14537,0.02734 -0.29488,0.04802 -0.44875,0.06211 -0.15355,0.01406 -0.31225,0.02105 -0.47635,0.02099 -0.23857,-9.3e-5 -0.43283,-0.01863 -0.58341,-0.05578 -0.1515,-0.03738 -0.26177,-0.09103 -0.33072,-0.161379 -0.0298,-0.03039 -0.0466,-0.05751 -0.0504,-0.08134 -0.007,-0.02506 0.004,-0.04848 0.0315,-0.07025 0.0269,-0.023 0.0809,-0.04664 0.16226,-0.07094 0.0797,-0.02438 0.195,-0.05234 0.34632,-0.08392 0.11373,-0.02349 0.21521,-0.05003 0.30445,-0.07966 0.0866,-0.03095 0.15374,-0.06747 0.20143,-0.109646 0.048,-0.04244 0.0717,-0.09252 0.071,-0.150412 -7.7e-4,-0.05839 -0.0353,-0.128025 -0.10422,-0.209243 -0.0457,-0.05383 -0.11594,-0.113291 -0.21122,-0.178527 -0.0982,-0.06586 -0.222,-0.127713 -0.37154,-0.18544 -0.1507,-0.05821 -0.32902,-0.106692 -0.53489,-0.145248 -0.2082,-0.04015 -0.44226,-0.06046 -0.70131,-0.06076 -0.12739,-1.48e-4 -0.26417,0.0045 -0.41019,0.01405 -0.14722,0.0081 -0.29388,0.02311 -0.4398,0.04496 0,0 0.3145,0.312636 0.3145,0.312636 0.14634,-0.02618 0.29191,-0.04517 0.43649,-0.05693 0.14141,-0.01311 0.2693,-0.01961 0.38346,-0.0195 0.1374,1.41e-4 0.25978,0.0069 0.367,0.02026 0.10484,0.01333 0.19746,0.0319 0.27779,0.05566 0.0767,0.02236 0.14157,0.04921 0.19455,0.08048 0.0516,0.02984 0.0928,0.06211 0.12358,0.09678 0.0307,0.0345 0.048,0.06564 0.0522,0.09348 0.002,0.02772 -0.0137,0.05468 -0.0476,0.08091 -0.0368,0.02488 -0.0954,0.05027 -0.17565,0.07616 -0.0811,0.02457 -0.19098,0.05147 -0.32956,0.0807 -0.14981,0.03151 -0.26895,0.06472 -0.35758,0.09959 -0.0894,0.0335 -0.15111,0.071 -0.18542,0.112455 -0.0342,0.0412 -0.0409,0.08741 -0.0206,0.138512 0.0182,0.05071 0.0599,0.107871 0.12466,0.171306 0,0 -5e-5,-2e-5 -5e-5,-2e-5" />
    </g>
    <path
       style="fill:#ff6600;stroke:#000000;stroke-width:0.26389042px;stroke-linecap:butt;stroke-linejoin:miter;stroke-opacity:1"
       d="m 40.6316,92.70459 9.506308,-9.531523 57.060852,8e-6 9.50629,9.531515 H 40.6316"
       id="path1565-2-8"
       inkscape:connector-curvature="0"
       inkscape:export-filename="C:\UnityProjects\DonPizza\PizzaPunx2D\Assets\Spritesheets\room.png"
       inkscape:export-xdpi="338.99231"
       inkscape:export-ydpi="338.99231" />
    <path
       style="fill:#231927;fill-opacity:1;stroke:#000000;stroke-width:0.26389042px;stroke-linecap:butt;stroke-linejoin:miter;stroke-opacity:1"
       d="m 84.003637,83.259723 3.153085,9.531524 -29.578184,-0.04714 6.49441,-9.531528 z"
       id="path1135-3"
       inkscape:connector-curvature="0"
       sodipodi:nodetypes="ccccc"
       inkscape:export-filename="C:\UnityProjects\DonPizza\PizzaPunx2D\Assets\Spritesheets\room.png"
       inkscape:export-xdpi="338.99231"
       inkscape:export-ydpi="338.99231" />
    <path
       style="fill:#e9ce96;fill-opacity:1;stroke:#000000;stroke-width:0.26389042px;stroke-linecap:butt;stroke-linejoin:miter;stroke-opacity:1"
       d="m 59.925895,89.346693 h 25.977648 l 1.271617,3.30304 -29.578184,0.04714 z"
       id="path1146-9"
       inkscape:connector-curvature="0"
       sodipodi:nodetypes="ccccc"
       inkscape:export-filename="C:\UnityProjects\DonPizza\PizzaPunx2D\Assets\Spritesheets\room.png"
       inkscape:export-xdpi="338.99231"
       inkscape:export-ydpi="338.99231" />
    <g
       aria-label="Welcome"
       style="font-style:normal;font-variant:normal;font-weight:normal;font-stretch:normal;font-size:4.23333311px;line-height:1.25;font-family:Consolas;-inkscape-font-specification:Consolas;letter-spacing:0px;word-spacing:0px;fill:#000000;fill-opacity:1;stroke:none;stroke-width:0.26458332"
       id="text1348"
       transform="matrix(0,-0.6925147,-0.69068358,0,149.05641,155.15923)"
       inkscape:export-filename="C:\UnityProjects\DonPizza\PizzaPunx2D\Assets\Spritesheets\room.png"
       inkscape:export-xdpi="338.99231"
       inkscape:export-ydpi="338.99231">
      <path
         inkscape:connector-curvature="0"
         id="path1350"
         style="stroke-width:0.26458332"
         d="m 91.227291,121.79032 c 0,0 3.031379,-1.3681 3.031379,-1.3681 0,0 -1.4e-5,0.78813 -1.4e-5,0.78813 0,0 -0.998528,1.17051 -0.998528,1.17051 0,0 -0.337798,0.37107 -0.337798,0.37107 0,0 0.364442,-0.0607 0.364442,-0.0607 0,0 0.97186,-0.10111 0.97186,-0.10111 0,0 -1.4e-5,0.7624 -1.4e-5,0.7624 0,0 -3.037135,2.42474 -3.037135,2.42474 0,0 9.43e-4,-0.64756 9.43e-4,-0.64756 0,0 2.14184,-1.62268 2.14184,-1.62268 0,0 0.529962,-0.40497 0.529962,-0.40497 0,0 -0.44802,0.0748 -0.44802,0.0748 0,0 -1.116365,0.14807 -1.116365,0.14807 0,0 4.23e-4,-0.45394 4.23e-4,-0.45394 0,0 1.19344,-1.37429 1.19344,-1.37429 0,0 0.37091,-0.42988 0.37091,-0.42988 0,0 -0.38834,0.21139 -0.38834,0.21139 0,0 -2.279875,1.12294 -2.279875,1.12294 0,0 8.9e-4,-0.61087 8.9e-4,-0.61087" />
      <path
         inkscape:connector-curvature="0"
         id="path1352"
         style="stroke-width:0.26458332"
         d="m 93.060463,117.01217 c 0.05579,-0.0224 0.102339,-0.0399 0.139737,-0.0525 0.03732,-0.0126 0.07226,-0.0231 0.104845,-0.0315 0,0 -0.0012,2.49373 -0.0012,2.49373 0.226423,-0.11353 0.397912,-0.2994 0.516641,-0.55723 0.116165,-0.25463 0.173855,-0.56685 0.173908,-0.93839 1.5e-5,-0.10088 -0.002,-0.20086 -0.0061,-0.29993 -0.0054,-0.0985 -0.01243,-0.19292 -0.02104,-0.28325 -0.0084,-0.0905 -0.01755,-0.1761 -0.02741,-0.2569 -0.01123,-0.0826 -0.02318,-0.15805 -0.03587,-0.2264 0,0 0.299171,-0.12237 0.299171,-0.12237 0.02749,0.14982 0.04945,0.32317 0.0659,0.52012 0.01782,0.19384 0.02672,0.39935 0.02672,0.61674 0,0.29219 -0.02395,0.55518 -0.07201,0.78965 -0.04833,0.23548 -0.118349,0.44514 -0.210449,0.62929 -0.09426,0.18403 -0.2099,0.34556 -0.34753,0.48468 -0.140642,0.13913 -0.301337,0.25661 -0.482829,0.35228 -0.159845,0.0843 -0.312485,0.12868 -0.457617,0.1325 -0.148356,0.002 -0.279337,-0.0383 -0.392385,-0.12225 -0.115641,-0.0863 -0.207845,-0.2177 -0.276106,-0.39428 -0.06861,-0.17747 -0.102892,-0.40085 -0.102593,-0.66943 2.9e-4,-0.26105 0.02769,-0.50426 0.08201,-0.72897 0.05409,-0.22374 0.130621,-0.42405 0.229187,-0.60064 0.09622,-0.17703 0.213063,-0.32737 0.349963,-0.451 0.133897,-0.1241 0.282461,-0.21864 0.445166,-0.28395 0,0 -1.65e-4,0 -1.65e-4,0 m -0.05721,0.67019 c -0.102119,0.0364 -0.195827,0.092 -0.280933,0.16695 -0.08723,0.0761 -0.162508,0.16916 -0.22561,0.27917 -0.06342,0.10812 -0.112811,0.2312 -0.148009,0.36915 -0.03689,0.13905 -0.05545,0.28971 -0.0556,0.4517 -1.33e-4,0.13991 0.0174,0.2592 0.05253,0.35765 0.03504,0.0982 0.08429,0.1733 0.147594,0.22531 0.06303,0.0517 0.138276,0.0813 0.225525,0.0887 0.08667,0.007 0.181203,-0.009 0.283416,-0.0479 0,0 0.0011,-1.89076 0.0011,-1.89076" />
      <path
         inkscape:connector-curvature="0"
         id="path1354"
         style="stroke-width:0.26458332"
         d="m 91.33258,115.33821 c 0,0 -0.0016,1.13047 -0.0016,1.13047 0,0 -0.374803,0.1333 -0.374803,0.1333 0,0 0.0029,-1.82483 0.0029,-1.82483 0,0 2.998113,-0.86686 2.998113,-0.86686 0,0 1.65e-4,-1.02559 1.65e-4,-1.02559 0,0 0.301444,-0.0745 0.301444,-0.0745 0,0 -4.9e-5,2.72923 -4.9e-5,2.72923 0,0 -0.301841,0.10875 -0.301841,0.10875 0,0 1.83e-4,-1.13374 1.83e-4,-1.13374 0,0 -2.624518,0.82377 -2.624518,0.82377" />
      <path
         inkscape:connector-curvature="0"
         id="path1356"
         style="stroke-width:0.26458332"
         d="m 94.182797,109.12982 c 0.03566,0.14986 0.06167,0.30483 0.07807,0.46507 0.01777,0.15764 0.02664,0.32181 0.02664,0.4927 -2e-6,0.53534 -0.08833,0.96363 -0.266979,1.28829 -0.181365,0.32729 -0.451281,0.52912 -0.815525,0.60334 -0.178603,0.0364 -0.342873,0.0257 -0.492193,-0.0329 -0.151065,-0.0593 -0.281695,-0.15991 -0.391239,-0.30223 -0.110455,-0.1435 -0.195851,-0.32455 -0.255692,-0.54295 -0.06174,-0.2191 -0.09256,-0.46711 -0.09225,-0.74323 2.13e-4,-0.19225 0.0094,-0.37322 0.0276,-0.54273 0.01815,-0.16926 0.04767,-0.33203 0.08847,-0.48813 0,0 0.398073,-0.0375 0.398073,-0.0375 -0.0538,0.16235 -0.09274,0.32743 -0.116691,0.49497 -0.02562,0.16564 -0.03853,0.3361 -0.0387,0.51115 -1.53e-4,0.16292 0.0204,0.31436 0.06155,0.45399 0.0395,0.13702 0.09702,0.25379 0.172306,0.35021 0.07486,0.0959 0.165567,0.1656 0.271786,0.20935 0.10534,0.0434 0.223406,0.0532 0.353828,0.03 0.268547,-0.0479 0.466258,-0.18475 0.596351,-0.40956 0.127299,-0.22448 0.190474,-0.51469 0.190528,-0.87232 2.4e-5,-0.16169 -0.01116,-0.31633 -0.03357,-0.46414 -0.02245,-0.15033 -0.05618,-0.2941 -0.101281,-0.43145 0,0 0.338921,-0.0319 0.338921,-0.0319" />
      <path
         inkscape:connector-curvature="0"
         id="path1358"
         style="stroke-width:0.26458332"
         d="m 93.16854,104.92441 c 0.173106,0.0132 0.330061,0.0633 0.471432,0.14976 0.138371,0.0853 0.256246,0.20149 0.354195,0.34828 0.0958,0.14556 0.170262,0.31942 0.223761,0.52177 0.05187,0.20146 0.07773,0.42844 0.07773,0.68159 0,0.24201 -0.02247,0.45964 -0.06755,0.65341 -0.04665,0.19232 -0.114873,0.35789 -0.205039,0.49691 -0.09086,0.1378 -0.204339,0.24684 -0.341045,0.327 -0.138251,0.0788 -0.299303,0.12348 -0.484008,0.13366 -0.175379,0.01 -0.337129,-0.0207 -0.484673,-0.0917 -0.150808,-0.0717 -0.281217,-0.18037 -0.390578,-0.32614 -0.111874,-0.14693 -0.198757,-0.32878 -0.260141,-0.54533 -0.0633,-0.21752 -0.0949,-0.46551 -0.09459,-0.74319 2.96e-4,-0.26531 0.02834,-0.50146 0.08395,-0.7078 0.05375,-0.20795 0.132999,-0.38074 0.23729,-0.51818 0.101868,-0.13886 0.228008,-0.24002 0.377708,-0.30373 0.147976,-0.0654 0.31541,-0.0906 0.501513,-0.0764 0,0 4.3e-5,1e-5 4.3e-5,1e-5 m 0.01749,0.62634 c -0.139159,-0.007 -0.26164,0.0114 -0.366939,0.0559 -0.107717,0.0425 -0.197688,0.10771 -0.269532,0.19579 -0.07378,0.0885 -0.129072,0.19871 -0.165629,0.33047 -0.03821,0.12968 -0.05743,0.27585 -0.05759,0.43823 -1.78e-4,0.18906 0.02434,0.35142 0.07341,0.48668 0.04729,0.13238 0.110949,0.2411 0.190723,0.32615 0.07928,0.0821 0.1712,0.14194 0.275473,0.17957 0.101915,0.035 0.208295,0.0507 0.319015,0.0474 0.137786,-0.004 0.257307,-0.031 0.359062,-0.0802 0.100931,-0.0511 0.184655,-0.12097 0.251513,-0.20946 0.06509,-0.088 0.114382,-0.19353 0.148061,-0.31672 0.03224,-0.12284 0.04833,-0.26129 0.04836,-0.41557 2.6e-5,-0.17695 -0.02089,-0.32829 -0.06285,-0.45436 -0.04353,-0.12882 -0.101323,-0.23467 -0.173584,-0.31759 -0.0727,-0.0857 -0.157352,-0.14941 -0.254195,-0.19103 -0.09906,-0.0443 -0.204073,-0.0695 -0.315192,-0.0752 0,0 -1.08e-4,-1e-5 -1.08e-4,-1e-5" />
      <path
         inkscape:connector-curvature="0"
         id="path1360"
         style="stroke-width:0.26458332"
         d="m 94.259,101.7528 c 0,0 -1.568303,-0.33143 -1.568303,-0.33143 -0.07276,-0.0154 -0.132697,-0.0232 -0.179647,-0.0235 -0.04707,-0.003 -0.08405,0.003 -0.11086,0.0163 -0.02847,0.0109 -0.04831,0.0297 -0.05946,0.0563 -0.01116,0.0242 -0.01676,0.0569 -0.0168,0.0979 -4.5e-5,0.0483 0.0094,0.0948 0.02844,0.13956 0.01897,0.0447 0.04976,0.0953 0.09229,0.15157 0.04239,0.0537 0.09873,0.11593 0.168815,0.18645 0.06812,0.0675 0.152051,0.1482 0.251479,0.24194 0,0 1.394004,0.24926 1.394004,0.24926 0,0 -9e-6,0.53324 -9e-6,0.53324 0,0 -1.525396,-0.23903 -1.525396,-0.23903 -0.085,-0.0133 -0.154181,-0.0194 -0.207298,-0.0181 -0.05335,-0.001 -0.09508,0.006 -0.12507,0.0202 -0.0301,0.0122 -0.05071,0.032 -0.0618,0.0593 -0.01117,0.0273 -0.01678,0.0615 -0.01682,0.10254 -4.1e-5,0.0435 0.0079,0.0857 0.02375,0.12665 0.01585,0.0409 0.04431,0.0883 0.0853,0.14217 0.04087,0.0513 0.09651,0.11045 0.166749,0.17729 0.06982,0.0665 0.158501,0.14576 0.265665,0.23753 0,0 1.394932,0.17335 1.394932,0.17335 0,0 -1e-5,0.53727 -1e-5,0.53727 0,0 -2.24418,-0.2289 -2.24418,-0.2289 0,0 5.33e-4,-0.48812 5.33e-4,-0.48812 0,0 0.458451,0.0264 0.458451,0.0264 -0.08987,-0.0737 -0.166823,-0.14367 -0.230626,-0.20994 -0.0641,-0.069 -0.115596,-0.13786 -0.154328,-0.20642 -0.04047,-0.069 -0.06966,-0.14027 -0.08749,-0.21373 -0.01949,-0.0762 -0.0292,-0.15847 -0.0291,-0.24661 2.2e-4,-0.19829 0.04359,-0.34166 0.12967,-0.42969 0.08552,-0.0875 0.216617,-0.11544 0.391941,-0.0847 -0.08179,-0.0721 -0.154559,-0.14175 -0.21816,-0.20882 -0.06551,-0.0677 -0.12008,-0.13727 -0.163556,-0.20866 -0.04523,-0.0744 -0.07924,-0.15286 -0.101921,-0.23543 -0.02435,-0.083 -0.03649,-0.17596 -0.03637,-0.27864 5.14e-4,-0.46198 0.236012,-0.63795 0.694139,-0.53096 0,0 1.591054,0.37159 1.591054,0.37159 0,0 1e-6,0.53585 1e-6,0.53585" />
      <path
         inkscape:connector-curvature="0"
         id="path1362"
         style="stroke-width:0.26458332"
         d="m 93.072179,97.081771 c 0.05524,0.02132 0.101325,0.04029 0.138355,0.05694 0.03695,0.01661 0.07155,0.03343 0.103818,0.05046 0,0 -0.0012,2.447071 -0.0012,2.447071 0.224229,0.06453 0.394082,0.01535 0.51169,-0.145493 0.115079,-0.15972 0.172234,-0.421444 0.172286,-0.786219 1.4e-5,-0.09905 -0.002,-0.198785 -0.006,-0.299224 -0.0054,-0.100933 -0.01232,-0.199084 -0.02085,-0.294471 -0.0083,-0.09537 -0.01739,-0.186552 -0.02716,-0.273543 -0.01112,-0.08982 -0.02297,-0.173201 -0.03554,-0.250157 0,0 0.296417,0.112203 0.296417,0.112203 0.02724,0.168476 0.049,0.355764 0.0653,0.561949 0.01766,0.204202 0.02648,0.412931 0.02648,0.626413 0,0.286937 -0.02374,0.526578 -0.07136,0.719462 -0.04789,0.193666 -0.117267,0.345097 -0.208519,0.454308 -0.09338,0.1074 -0.207942,0.17608 -0.344271,0.20566 -0.139297,0.0272 -0.298438,0.0176 -0.478152,-0.0296 -0.158258,-0.0416 -0.309366,-0.1166 -0.453025,-0.22565 -0.146834,-0.113092 -0.276459,-0.254678 -0.388326,-0.424874 -0.114424,-0.174523 -0.205651,-0.375072 -0.273186,-0.601349 -0.06787,-0.227404 -0.101792,-0.473198 -0.101499,-0.736483 2.85e-4,-0.255907 0.02738,-0.473277 0.08113,-0.651589 0.05351,-0.177556 0.129225,-0.314726 0.226748,-0.41152 0.09521,-0.09906 0.210833,-0.155916 0.34632,-0.17101 0.132528,-0.01788 0.279588,0.0046 0.440665,0.0668 0,0 -1.63e-4,-1.31e-4 -1.63e-4,-1.31e-4 m -0.05663,0.613428 c -0.101096,-0.04354 -0.193858,-0.06172 -0.278098,-0.05424 -0.08634,0.007 -0.16084,0.03986 -0.223289,0.09884 -0.06276,0.05687 -0.111636,0.139314 -0.146464,0.247358 -0.0365,0.107815 -0.05486,0.241247 -0.05501,0.400081 -1.31e-4,0.137193 0.01722,0.267864 0.05198,0.39176 0.03468,0.123575 0.08341,0.235528 0.146058,0.335736 0.06238,0.09974 0.136849,0.187178 0.223205,0.262288 0.08579,0.07461 0.179367,0.132302 0.280553,0.173188 0,0 0.0011,-1.855013 0.0011,-1.855013" />
    </g>
    <path
       style="fill:#ffd42a;stroke:#000000;stroke-width:0.26389042px;stroke-linecap:butt;stroke-linejoin:miter;stroke-opacity:1"
       d="m 40.6316,16.429438 9.506316,9.531515 -7e-6,57.212119 L 40.6316,92.70459 V 16.429437"
       id="path1565"
       inkscape:connector-curvature="0"
       inkscape:export-filename="C:\UnityProjects\DonPizza\PizzaPunx2D\Assets\Spritesheets\room.png"
       inkscape:export-xdpi="338.99231"
       inkscape:export-ydpi="338.99231" />
    <path
       style="fill:#ff7f2a;stroke:#000000;stroke-width:0.26389042px;stroke-linecap:butt;stroke-linejoin:miter;stroke-opacity:1"
       d="m 116.70505,16.429438 -9.50629,9.531521 -57.060849,-8e-6 -9.506311,-9.531513 h 76.07345"
       id="path1565-2"
       inkscape:connector-curvature="0"
       inkscape:export-filename="C:\UnityProjects\DonPizza\PizzaPunx2D\Assets\Spritesheets\room.png"
       inkscape:export-xdpi="338.99231"
       inkscape:export-ydpi="338.99231" />
  </g>
</svg>
